<?xml version="1.0" encoding="UTF-8" standalone="no"?>
<!-- Created with Inkscape (http://www.inkscape.org/) -->

<svg
   xmlns:dc="http://purl.org/dc/elements/1.1/"
   xmlns:cc="http://creativecommons.org/ns#"
   xmlns:rdf="http://www.w3.org/1999/02/22-rdf-syntax-ns#"
   xmlns:svg="http://www.w3.org/2000/svg"
   xmlns="http://www.w3.org/2000/svg"
   xmlns:sodipodi="http://sodipodi.sourceforge.net/DTD/sodipodi-0.dtd"
   xmlns:inkscape="http://www.inkscape.org/namespaces/inkscape"
   width="297mm"
   height="210mm"
   viewBox="0 0 1052.3622 744.09448"
   id="svg2"
   version="1.1"
   inkscape:version="0.91 r13725"
   sodipodi:docname="demo.svg">
  <defs
     id="defs4" />
  <sodipodi:namedview
     id="base"
     pagecolor="#ffffff"
     bordercolor="#666666"
     borderopacity="1.0"
     inkscape:pageopacity="0.0"
     inkscape:pageshadow="2"
     inkscape:zoom="0.98994949"
     inkscape:cx="654.91468"
     inkscape:cy="589.65069"
     inkscape:document-units="px"
     inkscape:current-layer="text4590"
     showgrid="false"
     inkscape:window-width="1855"
     inkscape:window-height="1056"
     inkscape:window-x="65"
     inkscape:window-y="24"
     inkscape:window-maximized="1" />
  <metadata
     id="metadata7">
    <rdf:RDF>
      <cc:Work
         rdf:about="">
        <dc:format>image/svg+xml</dc:format>
        <dc:type
           rdf:resource="http://purl.org/dc/dcmitype/StillImage" />
        <dc:title></dc:title>
      </cc:Work>
    </rdf:RDF>
  </metadata>
  <g
     inkscape:label="Layer 1"
     inkscape:groupmode="layer"
     id="layer1"
     transform="translate(0,-308.26772)">
    <g
       id="g4350"
       transform="matrix(1.9456115,0,0,1.9456115,225.24875,386.03881)">
      <polygon
         id="polygon4352"
         points="231.514,82.916 91.783,82.916 161.649,152.782 "
         style="fill:#f0ad00" />
      <polygon
         id="polygon4354"
         points="232.213,70.375 161.838,0 8.867,0 79.241,70.375 "
         style="fill:#7fd13b" />
      <rect
         id="rect4356"
         height="108.167"
         width="107.676"
         transform="matrix(0.7071,0.7071,-0.7071,0.7071,186.4727,-127.2386)"
         y="107.392"
         x="192.99001"
         style="fill:#7fd13b" />
      <polygon
         id="polygon4358"
         points="323.298,0 179.573,0 323.298,143.724 "
         style="fill:#60b5cc" />
      <polygon
         id="polygon4360"
         points="0,8.868 0,314.432 152.781,161.649 "
         style="fill:#5a6378" />
      <polygon
         id="polygon4362"
         points="323.298,314.432 323.298,178.879 255.522,246.655 "
         style="fill:#f0ad00" />
      <polygon
         id="polygon4364"
         points="8.869,323.298 314.43,323.298 161.649,170.517 "
         style="fill:#60b5cc" />
    </g>
    <text
       xml:space="preserve"
       style="font-style:normal;font-weight:normal;font-size:26.09680748px;line-height:125%;font-family:sans-serif;letter-spacing:0px;word-spacing:0px;fill:#000000;fill-opacity:1;stroke:none;stroke-width:1px;stroke-linecap:butt;stroke-linejoin:miter;stroke-opacity:1"
       x="466.19791"
       y="443.00848"
       id="text4380"
       sodipodi:linespacing="125%"><tspan
         sodipodi:role="line"
         id="tspan4382"
         x="466.19791"
         y="443.00848"
         style="font-style:normal;font-variant:normal;font-weight:bold;font-stretch:normal;font-family:Lato;-inkscape-font-specification:'Lato Bold';text-align:center;text-anchor:middle;fill:#ffffff">Focus</tspan><tspan
         sodipodi:role="line"
         x="466.19791"
         y="475.62949"
         id="tspan4384"
         style="font-style:normal;font-variant:normal;font-weight:bold;font-stretch:normal;font-family:Lato;-inkscape-font-specification:'Lato Bold';text-align:center;text-anchor:middle;fill:#ffffff">Area A</tspan></text>
    <text
       sodipodi:linespacing="125%"
       id="text4386"
       y="668.71948"
       x="342.07721"
       style="font-style:normal;font-weight:normal;font-size:46.91854477px;line-height:125%;font-family:sans-serif;letter-spacing:0px;word-spacing:0px;fill:#000000;fill-opacity:1;stroke:none;stroke-width:1px;stroke-linecap:butt;stroke-linejoin:miter;stroke-opacity:1"
       xml:space="preserve"><tspan
         style="font-style:normal;font-variant:normal;font-weight:bold;font-stretch:normal;font-family:Lato;-inkscape-font-specification:'Lato Bold';text-align:center;text-anchor:middle;fill:#ffffff"
         y="668.71948"
         x="342.07721"
         id="tspan4388"
         sodipodi:role="line">Focus</tspan><tspan
         style="font-style:normal;font-variant:normal;font-weight:bold;font-stretch:normal;font-family:Lato;-inkscape-font-specification:'Lato Bold';text-align:center;text-anchor:middle;fill:#ffffff"
         id="tspan4390"
         y="727.36768"
         x="342.07721"
         sodipodi:role="line">Area B</tspan></text>
    <text
       sodipodi:linespacing="125%"
       id="text4392"
       y="856.95099"
       x="803.50397"
       style="font-style:normal;font-weight:normal;font-size:17.48106194px;line-height:125%;font-family:sans-serif;letter-spacing:0px;word-spacing:0px;fill:#000000;fill-opacity:1;stroke:none;stroke-width:1px;stroke-linecap:butt;stroke-linejoin:miter;stroke-opacity:1"
       xml:space="preserve"><tspan
         style="font-style:normal;font-variant:normal;font-weight:bold;font-stretch:normal;font-family:Lato;-inkscape-font-specification:'Lato Bold';text-align:center;text-anchor:middle;fill:#ffffff"
         y="856.95099"
         x="803.50397"
         id="tspan4394"
         sodipodi:role="line">Focus</tspan><tspan
         style="font-style:normal;font-variant:normal;font-weight:bold;font-stretch:normal;font-family:Lato;-inkscape-font-specification:'Lato Bold';text-align:center;text-anchor:middle;fill:#ffffff"
         id="tspan4396"
         y="878.80231"
         x="803.50397"
         sodipodi:role="line">Area C</tspan></text>
    <g
       id="g4404"
       transform="translate(0,17.764327)">
      <rect
         y="377.58029"
         x="365.67523"
         height="110.10663"
         width="192.93913"
         id="rect4398"
         style="fill:none;fill-opacity:1;stroke:#ff0000;stroke-width:4;stroke-miterlimit:4;stroke-dasharray:none;stroke-opacity:1" />
      <text
         sodipodi:linespacing="125%"
         id="text4400"
         y="479.60571"
         x="532.3504"
         style="font-style:normal;font-weight:normal;font-size:37.5px;line-height:125%;font-family:sans-serif;letter-spacing:0px;word-spacing:0px;fill:#ff0000;fill-opacity:1;stroke:none;stroke-width:1px;stroke-linecap:butt;stroke-linejoin:miter;stroke-opacity:1"
         xml:space="preserve"><tspan
           y="479.60571"
           x="532.3504"
           id="tspan4402"
           sodipodi:role="line">2</tspan></text>
    </g>
    <g
       id="g4409"
       transform="matrix(1.2343031,0,0,1.4013934,-216.19494,74.754595)">
      <rect
         style="fill:none;fill-opacity:1;stroke:#ff0000;stroke-width:4;stroke-miterlimit:4;stroke-dasharray:none;stroke-opacity:1"
         id="rect4411"
         width="192.93913"
         height="110.10663"
         x="365.67523"
         y="377.58029" />
      <text
         xml:space="preserve"
         style="font-style:normal;font-weight:normal;font-size:37.5px;line-height:125%;font-family:sans-serif;letter-spacing:0px;word-spacing:0px;fill:#ff0000;fill-opacity:1;stroke:none;stroke-width:1px;stroke-linecap:butt;stroke-linejoin:miter;stroke-opacity:1"
         x="532.3504"
         y="479.60571"
         id="text4413"
         sodipodi:linespacing="125%"><tspan
           sodipodi:role="line"
           id="tspan4415"
           x="532.3504"
           y="479.60571">3</tspan></text>
      <rect
         y="377.58029"
         x="365.67523"
         height="110.10663"
         width="192.93913"
         id="rect4417"
         style="fill:none;fill-opacity:1;stroke:#ff0000;stroke-width:4;stroke-miterlimit:4;stroke-dasharray:none;stroke-opacity:1" />
    </g>
    <g
       transform="matrix(0.6105283,0,0,0.69317684,518.58992,545.80774)"
       id="g4548">
      <rect
         y="409.39041"
         x="368.01514"
         height="110.10663"
         width="192.93913"
         id="rect4421"
         style="fill:none;fill-opacity:1;stroke:#ff0000;stroke-width:4;stroke-miterlimit:4;stroke-dasharray:none;stroke-opacity:1" />
      <text
         sodipodi:linespacing="125%"
         id="text4423"
         y="507.29404"
         x="532.3504"
         style="font-style:normal;font-weight:normal;font-size:37.5px;line-height:125%;font-family:sans-serif;letter-spacing:0px;word-spacing:0px;fill:#ff0000;fill-opacity:1;stroke:none;stroke-width:1px;stroke-linecap:butt;stroke-linejoin:miter;stroke-opacity:1"
         xml:space="preserve"><tspan
           y="507.29404"
           x="532.3504"
           id="tspan4425"
           sodipodi:role="line">4</tspan></text>
    </g>
    <text
       sodipodi:linespacing="125%"
       id="text4485"
       y="349.29602"
       x="362.22635"
       style="font-style:normal;font-weight:normal;font-size:37.5px;line-height:125%;font-family:sans-serif;letter-spacing:0px;word-spacing:0px;fill:#000000;fill-opacity:1;stroke:none;stroke-width:1px;stroke-linecap:butt;stroke-linejoin:miter;stroke-opacity:1"
       xml:space="preserve"><tspan
         y="349.29602"
         x="362.22635"
         id="tspan4487"
         sodipodi:role="line" /></text>
    <g
       transform="matrix(0.6243032,0,0,0.7058407,523.10159,555.02346)"
       id="g4497">
      <rect
         style="fill:none;fill-opacity:1;stroke:#ff0000;stroke-width:6.14872503;stroke-miterlimit:4;stroke-dasharray:none;stroke-opacity:1"
         id="rect4491"
         width="1090.3517"
         height="1008.4376"
         x="-518.50079"
         y="-336.81006" />
      <text
         xml:space="preserve"
         style="font-style:normal;font-weight:normal;font-size:102.3745575px;line-height:125%;font-family:sans-serif;letter-spacing:0px;word-spacing:0px;fill:#ff0000;fill-opacity:1;stroke:none;stroke-width:1px;stroke-linecap:butt;stroke-linejoin:miter;stroke-opacity:1"
         x="459.55225"
         y="695.45874"
         id="text4493"
         sodipodi:linespacing="125%"
         transform="scale(1.0655384,0.93849268)"><tspan
           sodipodi:role="line"
           id="tspan4495"
           x="459.55225"
           y="695.45874">1</tspan></text>
    </g>
    <text
       sodipodi:linespacing="125%"
       id="text4502"
       y="354.4483"
       x="443.21347"
       style="font-style:normal;font-weight:normal;font-size:37.5px;line-height:125%;font-family:sans-serif;letter-spacing:0px;word-spacing:0px;fill:#000000;fill-opacity:1;stroke:none;stroke-width:1px;stroke-linecap:butt;stroke-linejoin:miter;stroke-opacity:1"
       xml:space="preserve"><tspan
         style="font-style:normal;font-variant:normal;font-weight:bold;font-stretch:normal;font-family:Lato;-inkscape-font-specification:'Lato Bold'"
         y="354.4483"
         x="443.21347"
         id="tspan4504"
         sodipodi:role="line">Demo Dive </tspan></text>
    <g
       style="font-style:normal;font-weight:normal;font-size:18.75px;line-height:125%;font-family:sans-serif;letter-spacing:0px;word-spacing:0px;fill:#000000;fill-opacity:1;stroke:none;stroke-width:1px;stroke-linecap:butt;stroke-linejoin:miter;stroke-opacity:1"
       id="text4590">
      <path
         d="m 303.88166,376.64164 q 0.83437,0 1.49062,-0.28125 0.65625,-0.28125 1.10625,-0.7875 0.45938,-0.50625 0.69375,-1.20938 0.24375,-0.70312 0.24375,-1.54687 l 0,-8.16563 1.80938,0 0,8.16563 q 0,1.1625 -0.375,2.15625 -0.36563,0.99375 -1.05938,1.725 -0.68437,0.72187 -1.67812,1.13437 -0.99375,0.4125 -2.23125,0.4125 -1.2375,0 -2.23125,-0.4125 -0.99375,-0.4125 -1.6875,-1.13437 -0.69375,-0.73125 -1.06875,-1.725 -0.36563,-0.99375 -0.36563,-2.15625 l 0,-8.16563 1.80938,0 0,8.15625 q 0,0.84375 0.23437,1.54688 0.24375,0.70312 0.69375,1.20937 0.45938,0.50625 1.11563,0.79688 0.66562,0.28125 1.5,0.28125 z"
         style="font-style:normal;font-variant:normal;font-weight:normal;font-stretch:normal;font-family:Lato;-inkscape-font-specification:Lato"
         id="path4595" />
      <path
         d="m 317.20148,370.15414 q -0.1125,0.20625 -0.34687,0.20625 -0.14063,0 -0.31875,-0.10313 -0.17813,-0.10312 -0.44063,-0.225 -0.25312,-0.13125 -0.60937,-0.23437 -0.35625,-0.1125 -0.84375,-0.1125 -0.42188,0 -0.75938,0.1125 -0.3375,0.10312 -0.58125,0.29062 -0.23437,0.1875 -0.36562,0.44063 -0.12188,0.24375 -0.12188,0.53437 0,0.36563 0.20625,0.60938 0.21563,0.24375 0.5625,0.42187 0.34688,0.17813 0.7875,0.31875 0.44063,0.13125 0.9,0.29063 0.46875,0.15 0.90938,0.3375 0.44062,0.1875 0.7875,0.46875 0.34687,0.28125 0.55312,0.69375 0.21563,0.40312 0.21563,0.975 0,0.65625 -0.23438,1.21875 -0.23437,0.55312 -0.69375,0.96562 -0.45937,0.40313 -1.125,0.6375 -0.66562,0.23438 -1.5375,0.23438 -0.99375,0 -1.8,-0.31875 -0.80625,-0.32813 -1.36875,-0.83438 l 0.39375,-0.6375 q 0.075,-0.12187 0.17813,-0.1875 0.10312,-0.0656 0.2625,-0.0656 0.16875,0 0.35625,0.13125 0.1875,0.13125 0.45,0.29062 0.27187,0.15938 0.65625,0.29063 0.38437,0.13125 0.95625,0.13125 0.4875,0 0.85312,-0.12188 0.36563,-0.13125 0.60938,-0.34687 0.24375,-0.21563 0.35625,-0.49688 0.12187,-0.28125 0.12187,-0.6 0,-0.39375 -0.21562,-0.64687 -0.20625,-0.2625 -0.55313,-0.44063 -0.34687,-0.1875 -0.79687,-0.31875 -0.44063,-0.14062 -0.90938,-0.29062 -0.45937,-0.15 -0.90937,-0.3375 -0.44063,-0.19688 -0.7875,-0.4875 -0.34688,-0.29063 -0.5625,-0.7125 -0.20625,-0.43125 -0.20625,-1.04063 0,-0.54375 0.225,-1.04062 0.225,-0.50625 0.65625,-0.88125 0.43125,-0.38438 1.05937,-0.60938 0.62813,-0.225 1.43438,-0.225 0.9375,0 1.67812,0.3 0.75,0.29063 1.29375,0.80625 l -0.375,0.60938 z"
         style="font-style:normal;font-variant:normal;font-weight:normal;font-stretch:normal;font-family:Lato;-inkscape-font-specification:Lato"
         id="path4597" />
      <path
         d="m 326.15637,372.30101 q 0,-0.58125 -0.16875,-1.05937 -0.15938,-0.4875 -0.47813,-0.83438 -0.30937,-0.35625 -0.75937,-0.54375 -0.45,-0.19687 -1.02188,-0.19687 -1.2,0 -1.90312,0.70312 -0.69375,0.69375 -0.8625,1.93125 l 5.19375,0 z m 1.35,4.45313 q -0.30938,0.375 -0.74063,0.65625 -0.43125,0.27187 -0.92812,0.45 -0.4875,0.17812 -1.0125,0.2625 -0.525,0.0937 -1.04063,0.0937 -0.98437,0 -1.81875,-0.32813 -0.825,-0.3375 -1.43437,-0.975 -0.6,-0.64687 -0.9375,-1.59375 -0.3375,-0.94687 -0.3375,-2.175 0,-0.99375 0.3,-1.85625 0.30937,-0.8625 0.88125,-1.49062 0.57187,-0.6375 1.39687,-0.99375 0.825,-0.36563 1.85625,-0.36563 0.85313,0 1.575,0.29063 0.73125,0.28125 1.25625,0.825 0.53438,0.53437 0.83438,1.33125 0.3,0.7875 0.3,1.8 0,0.39375 -0.0844,0.525 -0.0844,0.13125 -0.31875,0.13125 l -6.34687,0 q 0.0281,0.9 0.24375,1.56562 0.225,0.66563 0.61875,1.11563 0.39375,0.44062 0.9375,0.66562 0.54375,0.21563 1.21875,0.21563 0.62812,0 1.07812,-0.14063 0.45938,-0.15 0.7875,-0.31875 0.32813,-0.16875 0.54375,-0.30937 0.225,-0.15 0.38438,-0.15 0.20625,0 0.31875,0.15937 l 0.46875,0.60938 z"
         style="font-style:normal;font-variant:normal;font-weight:normal;font-stretch:normal;font-family:Lato;-inkscape-font-specification:Lato"
         id="path4599" />
      <path
         d="m 342.20285,368.58851 -5.29687,12.3 q -0.0844,0.1875 -0.21563,0.3 -0.12187,0.1125 -0.38437,0.1125 l -1.2375,0 1.73437,-3.76875 -3.91875,-8.94375 1.44375,0 q 0.21563,0 0.3375,0.1125 0.13125,0.10313 0.17813,0.23438 l 2.54062,5.98125 q 0.15,0.39375 0.25313,0.825 0.13125,-0.44063 0.28125,-0.83438 l 2.46562,-5.97187 q 0.0563,-0.15 0.1875,-0.24375 0.14063,-0.10313 0.30938,-0.10313 l 1.32187,0 z"
         style="font-style:normal;font-variant:normal;font-weight:normal;font-stretch:normal;font-family:Lato;-inkscape-font-specification:Lato"
         id="path4601" />
      <path
         d="m 347.42385,368.43851 q 1.04062,0 1.875,0.34688 0.83437,0.34687 1.425,0.98437 0.59062,0.6375 0.9,1.54688 0.31875,0.9 0.31875,2.01562 0,1.125 -0.31875,2.025 -0.30938,0.9 -0.9,1.5375 -0.59063,0.6375 -1.425,0.98438 -0.83438,0.3375 -1.875,0.3375 -1.05,0 -1.89375,-0.3375 -0.83438,-0.34688 -1.425,-0.98438 -0.59063,-0.6375 -0.90938,-1.5375 -0.30937,-0.9 -0.30937,-2.025 0,-1.11562 0.30937,-2.01562 0.31875,-0.90938 0.90938,-1.54688 0.59062,-0.6375 1.425,-0.98437 0.84375,-0.34688 1.89375,-0.34688 z m 0,8.475 q 1.40625,0 2.1,-0.9375 0.69375,-0.94687 0.69375,-2.63437 0,-1.69688 -0.69375,-2.64375 -0.69375,-0.94688 -2.1,-0.94688 -0.7125,0 -1.24688,0.24375 -0.525,0.24375 -0.88125,0.70313 -0.34687,0.45937 -0.525,1.13437 -0.16875,0.66563 -0.16875,1.50938 0,1.6875 0.69375,2.63437 0.70313,0.9375 2.12813,0.9375 z"
         style="font-style:normal;font-variant:normal;font-weight:normal;font-stretch:normal;font-family:Lato;-inkscape-font-specification:Lato"
         id="path4603" />
      <path
         d="m 361.85021,368.58851 0,9.49688 -0.99375,0 q -0.35625,0 -0.45,-0.34688 l -0.13125,-1.02187 q -0.61875,0.68437 -1.3875,1.10625 -0.76875,0.4125 -1.7625,0.4125 -0.77812,0 -1.37812,-0.25313 -0.59063,-0.2625 -0.99375,-0.73125 -0.40313,-0.46875 -0.60938,-1.13437 -0.19687,-0.66563 -0.19687,-1.47188 l 0,-6.05625 1.66875,0 0,6.05625 q 0,1.07813 0.4875,1.66875 0.49687,0.59063 1.50937,0.59063 0.74063,0 1.37813,-0.34688 0.64687,-0.35625 1.19062,-0.975 l 0,-6.99375 1.66875,0 z"
         style="font-style:normal;font-variant:normal;font-weight:normal;font-stretch:normal;font-family:Lato;-inkscape-font-specification:Lato"
         id="path4605" />
      <path
         d="m 366.06223,370.49164 q 0.45,-0.975 1.10625,-1.51875 0.65625,-0.55313 1.60312,-0.55313 0.3,0 0.57188,0.0656 0.28125,0.0656 0.49687,0.20625 l -0.12187,1.24687 q -0.0562,0.23438 -0.28125,0.23438 -0.13125,0 -0.38438,-0.0562 -0.25312,-0.0563 -0.57187,-0.0563 -0.45,0 -0.80625,0.13125 -0.34688,0.13125 -0.62813,0.39375 -0.27187,0.25312 -0.49687,0.6375 -0.21563,0.375 -0.39375,0.8625 l 0,6 -1.67813,0 0,-9.49688 0.95625,0 q 0.27188,0 0.375,0.10313 0.10313,0.10312 0.14063,0.35625 l 0.1125,1.44375 z"
         style="font-style:normal;font-variant:normal;font-weight:normal;font-stretch:normal;font-family:Lato;-inkscape-font-specification:Lato"
         id="path4607" />
      <path
         d="m 375.68391,378.08539 0,-9.49688 1.00312,0 q 0.35625,0 0.44063,0.34688 l 0.12187,0.975 q 0.525,-0.64688 1.18125,-1.05938 0.65625,-0.4125 1.51875,-0.4125 0.95625,0 1.54688,0.53438 0.6,0.53437 0.8625,1.44375 0.20625,-0.51563 0.525,-0.89063 0.32812,-0.375 0.73125,-0.61875 0.40312,-0.24375 0.85312,-0.35625 0.45938,-0.1125 0.92813,-0.1125 0.75,0 1.33125,0.24375 0.59062,0.23438 0.99375,0.69375 0.4125,0.45938 0.62812,1.13438 0.21563,0.66562 0.21563,1.52812 l 0,6.04688 -1.67813,0 0,-6.04688 q 0,-1.11562 -0.4875,-1.6875 -0.4875,-0.58125 -1.40625,-0.58125 -0.4125,0 -0.7875,0.15 -0.36562,0.14063 -0.64687,0.42188 -0.28125,0.28125 -0.45,0.7125 -0.15938,0.42187 -0.15938,0.98437 l 0,6.04688 -1.67812,0 0,-6.04688 q 0,-1.14375 -0.45938,-1.70625 -0.45937,-0.5625 -1.34062,-0.5625 -0.61875,0 -1.14375,0.3375 -0.525,0.32813 -0.96563,0.9 l 0,7.07813 -1.67812,0 z"
         style="font-style:normal;font-variant:normal;font-weight:normal;font-stretch:normal;font-family:Lato;-inkscape-font-specification:Lato"
         id="path4609" />
      <path
         d="m 395.10451,368.43851 q 1.04063,0 1.875,0.34688 0.83438,0.34687 1.425,0.98437 0.59063,0.6375 0.9,1.54688 0.31875,0.9 0.31875,2.01562 0,1.125 -0.31875,2.025 -0.30937,0.9 -0.9,1.5375 -0.59062,0.6375 -1.425,0.98438 -0.83437,0.3375 -1.875,0.3375 -1.05,0 -1.89375,-0.3375 -0.83437,-0.34688 -1.425,-0.98438 -0.59062,-0.6375 -0.90937,-1.5375 -0.30938,-0.9 -0.30938,-2.025 0,-1.11562 0.30938,-2.01562 0.31875,-0.90938 0.90937,-1.54688 0.59063,-0.6375 1.425,-0.98437 0.84375,-0.34688 1.89375,-0.34688 z m 0,8.475 q 1.40625,0 2.1,-0.9375 0.69375,-0.94687 0.69375,-2.63437 0,-1.69688 -0.69375,-2.64375 -0.69375,-0.94688 -2.1,-0.94688 -0.7125,0 -1.24687,0.24375 -0.525,0.24375 -0.88125,0.70313 -0.34688,0.45937 -0.525,1.13437 -0.16875,0.66563 -0.16875,1.50938 0,1.6875 0.69375,2.63437 0.70312,0.9375 2.12812,0.9375 z"
         style="font-style:normal;font-variant:normal;font-weight:normal;font-stretch:normal;font-family:Lato;-inkscape-font-specification:Lato"
         id="path4611" />
      <path
         d="m 409.53088,368.58851 0,9.49688 -0.99375,0 q -0.35625,0 -0.45,-0.34688 l -0.13125,-1.02187 q -0.61875,0.68437 -1.3875,1.10625 -0.76875,0.4125 -1.7625,0.4125 -0.77813,0 -1.37813,-0.25313 -0.59062,-0.2625 -0.99375,-0.73125 -0.40312,-0.46875 -0.60937,-1.13437 -0.19688,-0.66563 -0.19688,-1.47188 l 0,-6.05625 1.66875,0 0,6.05625 q 0,1.07813 0.4875,1.66875 0.49688,0.59063 1.50938,0.59063 0.74062,0 1.37812,-0.34688 0.64688,-0.35625 1.19063,-0.975 l 0,-6.99375 1.66875,0 z"
         style="font-style:normal;font-variant:normal;font-weight:normal;font-stretch:normal;font-family:Lato;-inkscape-font-specification:Lato"
         id="path4613" />
      <path
         d="m 417.68976,370.15414 q -0.1125,0.20625 -0.34687,0.20625 -0.14063,0 -0.31875,-0.10313 -0.17813,-0.10312 -0.44063,-0.225 -0.25312,-0.13125 -0.60937,-0.23437 -0.35625,-0.1125 -0.84375,-0.1125 -0.42188,0 -0.75938,0.1125 -0.3375,0.10312 -0.58125,0.29062 -0.23437,0.1875 -0.36562,0.44063 -0.12188,0.24375 -0.12188,0.53437 0,0.36563 0.20625,0.60938 0.21563,0.24375 0.5625,0.42187 0.34688,0.17813 0.7875,0.31875 0.44063,0.13125 0.9,0.29063 0.46875,0.15 0.90938,0.3375 0.44062,0.1875 0.7875,0.46875 0.34687,0.28125 0.55312,0.69375 0.21563,0.40312 0.21563,0.975 0,0.65625 -0.23438,1.21875 -0.23437,0.55312 -0.69375,0.96562 -0.45937,0.40313 -1.125,0.6375 -0.66562,0.23438 -1.5375,0.23438 -0.99375,0 -1.8,-0.31875 -0.80625,-0.32813 -1.36875,-0.83438 l 0.39375,-0.6375 q 0.075,-0.12187 0.17813,-0.1875 0.10312,-0.0656 0.2625,-0.0656 0.16875,0 0.35625,0.13125 0.1875,0.13125 0.45,0.29062 0.27187,0.15938 0.65625,0.29063 0.38437,0.13125 0.95625,0.13125 0.4875,0 0.85312,-0.12188 0.36563,-0.13125 0.60938,-0.34687 0.24375,-0.21563 0.35625,-0.49688 0.12187,-0.28125 0.12187,-0.6 0,-0.39375 -0.21562,-0.64687 -0.20625,-0.2625 -0.55313,-0.44063 -0.34687,-0.1875 -0.79687,-0.31875 -0.44063,-0.14062 -0.90938,-0.29062 -0.45937,-0.15 -0.90937,-0.3375 -0.44063,-0.19688 -0.7875,-0.4875 -0.34688,-0.29063 -0.5625,-0.7125 -0.20625,-0.43125 -0.20625,-1.04063 0,-0.54375 0.225,-1.04062 0.225,-0.50625 0.65625,-0.88125 0.43125,-0.38438 1.05937,-0.60938 0.62813,-0.225 1.43438,-0.225 0.9375,0 1.67812,0.3 0.75,0.29063 1.29375,0.80625 l -0.375,0.60938 z"
         style="font-style:normal;font-variant:normal;font-weight:normal;font-stretch:normal;font-family:Lato;-inkscape-font-specification:Lato"
         id="path4615" />
      <path
         d="m 426.64465,372.30101 q 0,-0.58125 -0.16875,-1.05937 -0.15938,-0.4875 -0.47813,-0.83438 -0.30937,-0.35625 -0.75937,-0.54375 -0.45,-0.19687 -1.02188,-0.19687 -1.2,0 -1.90312,0.70312 -0.69375,0.69375 -0.8625,1.93125 l 5.19375,0 z m 1.35,4.45313 q -0.30938,0.375 -0.74063,0.65625 -0.43125,0.27187 -0.92812,0.45 -0.4875,0.17812 -1.0125,0.2625 -0.525,0.0937 -1.04063,0.0937 -0.98437,0 -1.81875,-0.32813 -0.825,-0.3375 -1.43437,-0.975 -0.6,-0.64687 -0.9375,-1.59375 -0.3375,-0.94687 -0.3375,-2.175 0,-0.99375 0.3,-1.85625 0.30937,-0.8625 0.88125,-1.49062 0.57187,-0.6375 1.39687,-0.99375 0.825,-0.36563 1.85625,-0.36563 0.85313,0 1.575,0.29063 0.73125,0.28125 1.25625,0.825 0.53438,0.53437 0.83438,1.33125 0.3,0.7875 0.3,1.8 0,0.39375 -0.0844,0.525 -0.0844,0.13125 -0.31875,0.13125 l -6.34687,0 q 0.0281,0.9 0.24375,1.56562 0.225,0.66563 0.61875,1.11563 0.39375,0.44062 0.9375,0.66562 0.54375,0.21563 1.21875,0.21563 0.62812,0 1.07812,-0.14063 0.45938,-0.15 0.7875,-0.31875 0.32813,-0.16875 0.54375,-0.30937 0.225,-0.15 0.38438,-0.15 0.20625,0 0.31875,0.15937 l 0.46875,0.60938 z"
         style="font-style:normal;font-variant:normal;font-weight:normal;font-stretch:normal;font-family:Lato;-inkscape-font-specification:Lato"
         id="path4617" />
      <path
         d="m 436.65158,375.79789 q 0.45938,0.61875 1.00313,0.87187 0.55312,0.25313 1.20937,0.25313 1.34063,0 2.05313,-0.94688 0.7125,-0.94687 0.7125,-2.82187 0,-1.74375 -0.6375,-2.55938 -0.62813,-0.825 -1.8,-0.825 -0.81563,0 -1.425,0.375 -0.6,0.375 -1.11563,1.05938 l 0,4.59375 z m 0,-5.84063 q 0.6,-0.69375 1.35,-1.10625 0.75938,-0.4125 1.74375,-0.4125 0.83438,0 1.5,0.31875 0.675,0.31875 1.14375,0.92813 0.46875,0.6 0.7125,1.4625 0.25313,0.8625 0.25313,1.94062 0,1.15313 -0.28125,2.1 -0.28125,0.94688 -0.81563,1.62188 -0.525,0.66562 -1.28437,1.04062 -0.75938,0.36563 -1.70625,0.36563 -0.9375,0 -1.58438,-0.34688 -0.6375,-0.35625 -1.11562,-1.00312 l -0.0844,0.8625 q -0.075,0.35625 -0.43125,0.35625 l -1.07812,0 0,-13.80938 1.67812,0 0,5.68125 z"
         style="font-style:normal;font-variant:normal;font-weight:normal;font-stretch:normal;font-family:Lato;-inkscape-font-specification:Lato"
         id="path4619" />
      <path
         d="m 453.29308,368.58851 0,9.49688 -0.99375,0 q -0.35625,0 -0.45,-0.34688 l -0.13125,-1.02187 q -0.61875,0.68437 -1.3875,1.10625 -0.76875,0.4125 -1.7625,0.4125 -0.77812,0 -1.37812,-0.25313 -0.59063,-0.2625 -0.99375,-0.73125 -0.40313,-0.46875 -0.60938,-1.13437 -0.19687,-0.66563 -0.19687,-1.47188 l 0,-6.05625 1.66875,0 0,6.05625 q 0,1.07813 0.4875,1.66875 0.49687,0.59063 1.50937,0.59063 0.74063,0 1.37813,-0.34688 0.64687,-0.35625 1.19062,-0.975 l 0,-6.99375 1.66875,0 z"
         style="font-style:normal;font-variant:normal;font-weight:normal;font-stretch:normal;font-family:Lato;-inkscape-font-specification:Lato"
         id="path4621" />
      <path
         d="m 458.83635,378.23539 q -1.125,0 -1.73438,-0.62813 -0.6,-0.62812 -0.6,-1.80937 l 0,-5.8125 -1.14375,0 q -0.15,0 -0.25312,-0.0844 -0.10313,-0.0937 -0.10313,-0.28125 l 0,-0.66562 1.55625,-0.19688 0.38438,-2.93437 q 0.0281,-0.14063 0.12187,-0.225 0.10313,-0.0937 0.2625,-0.0937 l 0.84375,0 0,3.27187 4.47188,0 0.38437,-2.95312 q 0.0281,-0.14063 0.12188,-0.225 0.10312,-0.0937 0.2625,-0.0937 l 0.84375,0 0,3.27187 2.74687,0 0,1.20938 -2.74687,0 0,5.7 q 0,0.6 0.29062,0.89062 0.3,0.29063 0.75,0.29063 0.2625,0 0.45,-0.0656 0.19688,-0.075 0.3375,-0.15937 0.14063,-0.0844 0.23438,-0.15 0.10312,-0.075 0.17812,-0.075 0.14063,0 0.23438,0.15937 l 0.49687,0.79688 q -0.44062,0.40312 -1.05,0.6375 -0.60937,0.225 -1.25625,0.225 -1.11562,0 -1.725,-0.62813 -0.60937,-0.62812 -0.60937,-1.80937 l 0,-5.8125 -4.41563,0 0,5.7 q 0,0.6 0.29063,0.89062 0.29062,0.29063 0.75,0.29063 0.2625,0 0.45,-0.0656 0.19687,-0.075 0.3375,-0.15937 0.14062,-0.0844 0.23437,-0.15 0.10313,-0.075 0.17813,-0.075 0.13125,0 0.23437,0.15937 l 0.4875,0.79688 q -0.43125,0.40312 -1.04062,0.6375 -0.60938,0.225 -1.25625,0.225 z"
         style="font-style:normal;font-variant:normal;font-weight:normal;font-stretch:normal;font-family:Lato;-inkscape-font-specification:Lato"
         id="path4623" />
      <path
         d="m 472.70461,368.43851 q 1.04062,0 1.875,0.34688 0.83437,0.34687 1.425,0.98437 0.59062,0.6375 0.9,1.54688 0.31875,0.9 0.31875,2.01562 0,1.125 -0.31875,2.025 -0.30938,0.9 -0.9,1.5375 -0.59063,0.6375 -1.425,0.98438 -0.83438,0.3375 -1.875,0.3375 -1.05,0 -1.89375,-0.3375 -0.83438,-0.34688 -1.425,-0.98438 -0.59063,-0.6375 -0.90938,-1.5375 -0.30937,-0.9 -0.30937,-2.025 0,-1.11562 0.30937,-2.01562 0.31875,-0.90938 0.90938,-1.54688 0.59062,-0.6375 1.425,-0.98437 0.84375,-0.34688 1.89375,-0.34688 z m 0,8.475 q 1.40625,0 2.1,-0.9375 0.69375,-0.94687 0.69375,-2.63437 0,-1.69688 -0.69375,-2.64375 -0.69375,-0.94688 -2.1,-0.94688 -0.7125,0 -1.24688,0.24375 -0.525,0.24375 -0.88125,0.70313 -0.34687,0.45937 -0.525,1.13437 -0.16875,0.66563 -0.16875,1.50938 0,1.6875 0.69375,2.63437 0.70313,0.9375 2.12813,0.9375 z"
         style="font-style:normal;font-variant:normal;font-weight:normal;font-stretch:normal;font-family:Lato;-inkscape-font-specification:Lato"
         id="path4625" />
      <path
         d="m 480.8966,369.96664 q 0.30938,-0.34688 0.65625,-0.62813 0.34688,-0.28125 0.73125,-0.47812 0.39375,-0.20625 0.825,-0.30938 0.44063,-0.1125 0.94688,-0.1125 0.77812,0 1.36875,0.2625 0.6,0.25313 0.99375,0.73125 0.40312,0.46875 0.60937,1.13438 0.20625,0.66562 0.20625,1.47187 l 0,6.04688 -1.67812,0 0,-6.04688 q 0,-1.07812 -0.49688,-1.66875 -0.4875,-0.6 -1.49062,-0.6 -0.74063,0 -1.3875,0.35625 -0.6375,0.35625 -1.18125,0.96563 l 0,6.99375 -1.67813,0 0,-9.49688 1.00313,0 q 0.35625,0 0.44062,0.34688 l 0.13125,1.03125 z"
         style="font-style:normal;font-variant:normal;font-weight:normal;font-stretch:normal;font-family:Lato;-inkscape-font-specification:Lato"
         id="path4627" />
      <path
         d="m 498.59572,368.43851 q 1.04063,0 1.875,0.34688 0.83438,0.34687 1.425,0.98437 0.59063,0.6375 0.9,1.54688 0.31875,0.9 0.31875,2.01562 0,1.125 -0.31875,2.025 -0.30937,0.9 -0.9,1.5375 -0.59062,0.6375 -1.425,0.98438 -0.83437,0.3375 -1.875,0.3375 -1.05,0 -1.89375,-0.3375 -0.83437,-0.34688 -1.425,-0.98438 -0.59062,-0.6375 -0.90937,-1.5375 -0.30938,-0.9 -0.30938,-2.025 0,-1.11562 0.30938,-2.01562 0.31875,-0.90938 0.90937,-1.54688 0.59063,-0.6375 1.425,-0.98437 0.84375,-0.34688 1.89375,-0.34688 z m 0,8.475 q 1.40625,0 2.1,-0.9375 0.69375,-0.94687 0.69375,-2.63437 0,-1.69688 -0.69375,-2.64375 -0.69375,-0.94688 -2.1,-0.94688 -0.7125,0 -1.24687,0.24375 -0.525,0.24375 -0.88125,0.70313 -0.34688,0.45937 -0.525,1.13437 -0.16875,0.66563 -0.16875,1.50938 0,1.6875 0.69375,2.63437 0.70312,0.9375 2.12812,0.9375 z"
         style="font-style:normal;font-variant:normal;font-weight:normal;font-stretch:normal;font-family:Lato;-inkscape-font-specification:Lato"
         id="path4629" />
      <path
         d="m 506.79709,370.49164 q 0.45,-0.975 1.10625,-1.51875 0.65625,-0.55313 1.60312,-0.55313 0.3,0 0.57188,0.0656 0.28125,0.0656 0.49687,0.20625 l -0.12187,1.24687 q -0.0563,0.23438 -0.28125,0.23438 -0.13125,0 -0.38438,-0.0562 -0.25312,-0.0563 -0.57187,-0.0563 -0.45,0 -0.80625,0.13125 -0.34688,0.13125 -0.62813,0.39375 -0.27187,0.25312 -0.49687,0.6375 -0.21563,0.375 -0.39375,0.8625 l 0,6 -1.67813,0 0,-9.49688 0.95625,0 q 0.27188,0 0.375,0.10313 0.10313,0.10312 0.14063,0.35625 l 0.1125,1.44375 z"
         style="font-style:normal;font-variant:normal;font-weight:normal;font-stretch:normal;font-family:Lato;-inkscape-font-specification:Lato"
         id="path4631" />
      <path
         d="m 518.14377,364.27601 0,13.80938 -1.66875,0 0,-13.80938 1.66875,0 z"
         style="font-style:normal;font-variant:normal;font-weight:normal;font-stretch:normal;font-family:Lato;-inkscape-font-specification:Lato"
         id="path4633" />
      <path
         d="m 527.20617,372.30101 q 0,-0.58125 -0.16875,-1.05937 -0.15937,-0.4875 -0.47812,-0.83438 -0.30938,-0.35625 -0.75938,-0.54375 -0.45,-0.19687 -1.02187,-0.19687 -1.2,0 -1.90313,0.70312 -0.69375,0.69375 -0.8625,1.93125 l 5.19375,0 z m 1.35,4.45313 q -0.30937,0.375 -0.74062,0.65625 -0.43125,0.27187 -0.92813,0.45 -0.4875,0.17812 -1.0125,0.2625 -0.525,0.0937 -1.04062,0.0937 -0.98438,0 -1.81875,-0.32813 -0.825,-0.3375 -1.43438,-0.975 -0.6,-0.64687 -0.9375,-1.59375 -0.3375,-0.94687 -0.3375,-2.175 0,-0.99375 0.3,-1.85625 0.30938,-0.8625 0.88125,-1.49062 0.57188,-0.6375 1.39688,-0.99375 0.825,-0.36563 1.85625,-0.36563 0.85312,0 1.575,0.29063 0.73125,0.28125 1.25625,0.825 0.53437,0.53437 0.83437,1.33125 0.3,0.7875 0.3,1.8 0,0.39375 -0.0844,0.525 -0.0844,0.13125 -0.31875,0.13125 l -6.34688,0 q 0.0281,0.9 0.24375,1.56562 0.225,0.66563 0.61875,1.11563 0.39375,0.44062 0.9375,0.66562 0.54375,0.21563 1.21875,0.21563 0.62813,0 1.07813,-0.14063 0.45937,-0.15 0.7875,-0.31875 0.32812,-0.16875 0.54375,-0.30937 0.225,-0.15 0.38437,-0.15 0.20625,0 0.31875,0.15937 l 0.46875,0.60938 z"
         style="font-style:normal;font-variant:normal;font-weight:normal;font-stretch:normal;font-family:Lato;-inkscape-font-specification:Lato"
         id="path4635" />
      <path
         d="m 538.99025,369.98539 0,5.7 q 0,0.6 0.29063,0.89062 0.29062,0.29063 0.74062,0.29063 0.27188,0 0.45938,-0.0656 0.19687,-0.075 0.3375,-0.15937 0.14062,-0.0844 0.23437,-0.15 0.0937,-0.075 0.16875,-0.075 0.0844,0 0.13125,0.0375 0.0562,0.0375 0.1125,0.12187 l 0.4875,0.79688 q -0.43125,0.40312 -1.04062,0.6375 -0.60938,0.225 -1.26563,0.225 -1.11562,0 -1.725,-0.62813 -0.6,-0.62812 -0.6,-1.80937 l 0,-5.8125 -4.39687,0 0,8.1 -1.67813,0 0,-8.07188 -1.05,-0.12187 q -0.19687,-0.0469 -0.32812,-0.14063 -0.12188,-0.10312 -0.12188,-0.29062 l 0,-0.68438 1.5,0 0,-0.91875 q 0,-0.81562 0.225,-1.44375 0.23438,-0.6375 0.65625,-1.06875 0.43125,-0.44062 1.03125,-0.66562 0.6,-0.225 1.35,-0.225 0.6375,0 1.17188,0.1875 l -0.0375,0.83437 q -0.0187,0.225 -0.25313,0.24375 -0.225,0.0188 -0.60937,0.0188 -0.43125,0 -0.7875,0.1125 -0.34688,0.1125 -0.6,0.36563 -0.25313,0.25312 -0.39375,0.66562 -0.13125,0.4125 -0.13125,1.02188 l 0,0.87187 4.50937,0 0.375,-2.95312 q 0.0375,-0.14063 0.13125,-0.225 0.10313,-0.0937 0.2625,-0.0937 l 0.84375,0 0,3.27187 2.7375,0 0,1.20938 -2.7375,0 z"
         style="font-style:normal;font-variant:normal;font-weight:normal;font-stretch:normal;font-family:Lato;-inkscape-font-specification:Lato"
         id="path4637" />
      <path
         d="m 544.36389,378.28226 q -0.12188,0.32813 -0.38438,0.4875 -0.25312,0.15938 -0.525,0.15938 l -0.70312,0 5.63437,-14.03438 q 0.1125,-0.3 0.3375,-0.45937 0.23438,-0.15938 0.53438,-0.15938 l 0.7125,0 -5.60625,14.00625 z"
         style="font-style:normal;font-variant:normal;font-weight:normal;font-stretch:normal;font-family:Lato;-inkscape-font-specification:Lato"
         id="path4639" />
      <path
         d="m 552.97629,370.49164 q 0.45,-0.975 1.10625,-1.51875 0.65625,-0.55313 1.60312,-0.55313 0.3,0 0.57188,0.0656 0.28125,0.0656 0.49687,0.20625 l -0.12187,1.24687 q -0.0562,0.23438 -0.28125,0.23438 -0.13125,0 -0.38438,-0.0562 -0.25312,-0.0563 -0.57187,-0.0563 -0.45,0 -0.80625,0.13125 -0.34688,0.13125 -0.62813,0.39375 -0.27187,0.25312 -0.49687,0.6375 -0.21563,0.375 -0.39375,0.8625 l 0,6 -1.67813,0 0,-9.49688 0.95625,0 q 0.27188,0 0.375,0.10313 0.10313,0.10312 0.14063,0.35625 l 0.1125,1.44375 z"
         style="font-style:normal;font-variant:normal;font-weight:normal;font-stretch:normal;font-family:Lato;-inkscape-font-specification:Lato"
         id="path4641" />
      <path
         d="m 559.96594,368.58851 0,9.49688 -1.66875,0 0,-9.49688 1.66875,0 z m 0.35625,-2.98125 q 0,0.24375 -0.10313,0.45938 -0.0937,0.20625 -0.2625,0.375 -0.15937,0.15937 -0.38437,0.25312 -0.21563,0.0937 -0.45938,0.0937 -0.24375,0 -0.45937,-0.0937 -0.20625,-0.0937 -0.36563,-0.25312 -0.15937,-0.16875 -0.25312,-0.375 -0.0937,-0.21563 -0.0937,-0.45938 0,-0.24375 0.0937,-0.45937 0.0937,-0.225 0.25312,-0.38438 0.15938,-0.16875 0.36563,-0.2625 0.21562,-0.0937 0.45937,-0.0937 0.24375,0 0.45938,0.0937 0.225,0.0937 0.38437,0.2625 0.16875,0.15938 0.2625,0.38438 0.10313,0.21562 0.10313,0.45937 z"
         style="font-style:normal;font-variant:normal;font-weight:normal;font-stretch:normal;font-family:Lato;-inkscape-font-specification:Lato"
         id="path4643" />
      <path
         d="m 566.01721,373.44476 q 0.50625,0 0.89062,-0.14062 0.38438,-0.14063 0.64688,-0.39375 0.2625,-0.25313 0.39375,-0.6 0.13125,-0.35625 0.13125,-0.77813 0,-0.87187 -0.53438,-1.3875 -0.525,-0.51562 -1.52812,-0.51562 -1.0125,0 -1.54688,0.51562 -0.525,0.51563 -0.525,1.3875 0,0.42188 0.13125,0.77813 0.14063,0.34687 0.40313,0.6 0.2625,0.25312 0.64687,0.39375 0.38438,0.14062 0.89063,0.14062 z m 3.00937,5.15625 q 0,-0.34687 -0.19687,-0.5625 -0.19688,-0.21562 -0.53438,-0.3375 -0.32812,-0.12187 -0.76875,-0.16875 -0.44062,-0.0563 -0.9375,-0.0844 -0.4875,-0.0281 -0.99375,-0.0562 -0.50625,-0.0281 -0.975,-0.0937 -0.525,0.24375 -0.8625,0.61875 -0.32812,0.36562 -0.32812,0.8625 0,0.31875 0.15937,0.59062 0.16875,0.28125 0.50625,0.47813 0.3375,0.20625 0.84375,0.31875 0.51563,0.12187 1.20938,0.12187 0.675,0 1.20937,-0.12187 0.53438,-0.12188 0.9,-0.34688 0.375,-0.225 0.57188,-0.53437 0.19687,-0.30938 0.19687,-0.68438 z m 1.69688,-9.6375 0,0.61875 q 0,0.30938 -0.39375,0.39375 l -1.07813,0.14063 q 0.31875,0.61875 0.31875,1.36875 0,0.69375 -0.27187,1.26562 -0.2625,0.5625 -0.73125,0.96563 -0.46875,0.40312 -1.125,0.61875 -0.65625,0.21562 -1.425,0.21562 -0.66563,0 -1.25625,-0.15937 -0.3,0.1875 -0.45938,0.40312 -0.15937,0.20625 -0.15937,0.42188 0,0.3375 0.27187,0.51562 0.28125,0.16875 0.73125,0.24375 0.45,0.075 1.02188,0.0937 0.58125,0.0188 1.18125,0.0656 0.60937,0.0375 1.18125,0.14062 0.58125,0.10313 1.03125,0.3375 0.45,0.23438 0.72187,0.64688 0.28125,0.4125 0.28125,1.06875 0,0.60937 -0.30937,1.18125 -0.3,0.57187 -0.87188,1.0125 -0.57187,0.45 -1.40625,0.7125 -0.825,0.27187 -1.86562,0.27187 -1.04063,0 -1.81875,-0.20625 -0.77813,-0.20625 -1.29375,-0.55312 -0.51563,-0.34688 -0.77813,-0.80625 -0.25312,-0.45 -0.25312,-0.94688 0,-0.70312 0.44062,-1.19062 0.44063,-0.4875 1.20938,-0.77813 -0.42188,-0.1875 -0.675,-0.49687 -0.24375,-0.31875 -0.24375,-0.85313 0,-0.20625 0.075,-0.42187 0.075,-0.225 0.225,-0.44063 0.15937,-0.225 0.38437,-0.42187 0.225,-0.19688 0.525,-0.34688 -0.70312,-0.39375 -1.09687,-1.04062 -0.39375,-0.65625 -0.39375,-1.51875 0,-0.69375 0.2625,-1.25625 0.27187,-0.57188 0.75,-0.96563 0.47812,-0.40312 1.13437,-0.61875 0.66563,-0.21562 1.45313,-0.21562 0.61875,0 1.15312,0.14062 0.53438,0.13125 0.975,0.39375 l 2.57813,0 z"
         style="font-style:normal;font-variant:normal;font-weight:normal;font-stretch:normal;font-family:Lato;-inkscape-font-specification:Lato"
         id="path4645" />
      <path
         d="m 574.12717,369.85414 q 0.60937,-0.64688 1.35,-1.03125 0.74062,-0.38438 1.70625,-0.38438 0.77812,0 1.36875,0.2625 0.6,0.25313 0.99375,0.73125 0.40312,0.46875 0.60937,1.13438 0.20625,0.66562 0.20625,1.47187 l 0,6.04688 -1.67812,0 0,-6.04688 q 0,-1.07812 -0.49688,-1.66875 -0.4875,-0.6 -1.49062,-0.6 -0.74063,0 -1.3875,0.35625 -0.6375,0.35625 -1.18125,0.96563 l 0,6.99375 -1.67813,0 0,-13.80938 1.67813,0 0,5.57813 z"
         style="font-style:normal;font-variant:normal;font-weight:normal;font-stretch:normal;font-family:Lato;-inkscape-font-specification:Lato"
         id="path4647" />
      <path
         d="m 585.69182,378.23539 q -1.125,0 -1.73438,-0.62813 -0.6,-0.62812 -0.6,-1.80937 l 0,-5.8125 -1.14375,0 q -0.15,0 -0.25312,-0.0844 -0.10313,-0.0937 -0.10313,-0.28125 l 0,-0.66562 1.55625,-0.19688 0.38438,-2.93437 q 0.0281,-0.14063 0.12187,-0.225 0.10313,-0.0937 0.2625,-0.0937 l 0.84375,0 0,3.27187 2.74688,0 0,1.20938 -2.74688,0 0,5.7 q 0,0.6 0.29063,0.89062 0.29062,0.29063 0.75,0.29063 0.2625,0 0.45,-0.0656 0.19687,-0.075 0.3375,-0.15937 0.14062,-0.0844 0.23437,-0.15 0.10313,-0.075 0.17813,-0.075 0.13125,0 0.23437,0.15937 l 0.4875,0.79688 q -0.43125,0.40312 -1.04062,0.6375 -0.60938,0.225 -1.25625,0.225 z"
         style="font-style:normal;font-variant:normal;font-weight:normal;font-stretch:normal;font-family:Lato;-inkscape-font-specification:Lato"
         id="path4649" />
      <path
         d="m 599.45871,373.81039 q -1.15313,0.0375 -1.96875,0.1875 -0.80625,0.14062 -1.32188,0.375 -0.50625,0.23437 -0.74062,0.55312 -0.225,0.31875 -0.225,0.7125 0,0.375 0.12187,0.64688 0.12188,0.27187 0.32813,0.45 0.21562,0.16875 0.49687,0.25312 0.29063,0.075 0.61875,0.075 0.44063,0 0.80625,-0.0844 0.36563,-0.0937 0.68438,-0.2625 0.32812,-0.16875 0.61875,-0.40313 0.3,-0.23437 0.58125,-0.53437 l 0,-1.96875 z m -5.39063,-3.88125 q 0.7875,-0.75938 1.69688,-1.13438 0.90937,-0.375 2.01562,-0.375 0.79688,0 1.41563,0.2625 0.61875,0.2625 1.04062,0.73125 0.42188,0.46875 0.6375,1.13438 0.21563,0.66562 0.21563,1.4625 l 0,6.075 -0.74063,0 q -0.24375,0 -0.375,-0.075 -0.13125,-0.0844 -0.20625,-0.31875 l -0.1875,-0.9 q -0.375,0.34687 -0.73125,0.61875 -0.35625,0.2625 -0.75,0.45 -0.39375,0.17812 -0.84375,0.27187 -0.44062,0.10313 -0.98437,0.10313 -0.55313,0 -1.04063,-0.15 -0.4875,-0.15938 -0.85312,-0.46875 -0.35625,-0.30938 -0.57188,-0.77813 -0.20625,-0.47812 -0.20625,-1.125 0,-0.5625 0.30938,-1.07812 0.30937,-0.525 1.00312,-0.92813 0.69375,-0.40312 1.80938,-0.65625 1.11562,-0.2625 2.7375,-0.3 l 0,-0.74062 q 0,-1.10625 -0.47813,-1.66875 -0.47812,-0.57188 -1.39687,-0.57188 -0.61875,0 -1.04063,0.15938 -0.4125,0.15 -0.72187,0.34687 -0.3,0.1875 -0.525,0.34688 -0.21563,0.15 -0.43125,0.15 -0.16875,0 -0.29063,-0.0844 -0.12187,-0.0937 -0.20625,-0.225 l -0.3,-0.53437 z"
         style="font-style:normal;font-variant:normal;font-weight:normal;font-stretch:normal;font-family:Lato;-inkscape-font-specification:Lato"
         id="path4651" />
      <path
         d="m 605.19797,370.49164 q 0.45,-0.975 1.10625,-1.51875 0.65625,-0.55313 1.60312,-0.55313 0.3,0 0.57188,0.0656 0.28125,0.0656 0.49687,0.20625 l -0.12187,1.24687 q -0.0563,0.23438 -0.28125,0.23438 -0.13125,0 -0.38438,-0.0562 -0.25312,-0.0563 -0.57187,-0.0563 -0.45,0 -0.80625,0.13125 -0.34688,0.13125 -0.62813,0.39375 -0.27187,0.25312 -0.49687,0.6375 -0.21563,0.375 -0.39375,0.8625 l 0,6 -1.67813,0 0,-9.49688 0.95625,0 q 0.27188,0 0.375,0.10313 0.10313,0.10312 0.14063,0.35625 l 0.1125,1.44375 z"
         style="font-style:normal;font-variant:normal;font-weight:normal;font-stretch:normal;font-family:Lato;-inkscape-font-specification:Lato"
         id="path4653" />
      <path
         d="m 612.00949,370.49164 q 0.45,-0.975 1.10625,-1.51875 0.65625,-0.55313 1.60313,-0.55313 0.3,0 0.57187,0.0656 0.28125,0.0656 0.49688,0.20625 l -0.12188,1.24687 q -0.0562,0.23438 -0.28125,0.23438 -0.13125,0 -0.38437,-0.0562 -0.25313,-0.0563 -0.57188,-0.0563 -0.45,0 -0.80625,0.13125 -0.34687,0.13125 -0.62812,0.39375 -0.27188,0.25312 -0.49688,0.6375 -0.21562,0.375 -0.39375,0.8625 l 0,6 -1.67812,0 0,-9.49688 0.95625,0 q 0.27187,0 0.375,0.10313 0.10312,0.10312 0.14062,0.35625 l 0.1125,1.44375 z"
         style="font-style:normal;font-variant:normal;font-weight:normal;font-stretch:normal;font-family:Lato;-inkscape-font-specification:Lato"
         id="path4655" />
      <path
         d="m 620.87355,368.43851 q 1.04063,0 1.875,0.34688 0.83438,0.34687 1.425,0.98437 0.59063,0.6375 0.9,1.54688 0.31875,0.9 0.31875,2.01562 0,1.125 -0.31875,2.025 -0.30937,0.9 -0.9,1.5375 -0.59062,0.6375 -1.425,0.98438 -0.83437,0.3375 -1.875,0.3375 -1.05,0 -1.89375,-0.3375 -0.83437,-0.34688 -1.425,-0.98438 -0.59062,-0.6375 -0.90937,-1.5375 -0.30938,-0.9 -0.30938,-2.025 0,-1.11562 0.30938,-2.01562 0.31875,-0.90938 0.90937,-1.54688 0.59063,-0.6375 1.425,-0.98437 0.84375,-0.34688 1.89375,-0.34688 z m 0,8.475 q 1.40625,0 2.1,-0.9375 0.69375,-0.94687 0.69375,-2.63437 0,-1.69688 -0.69375,-2.64375 -0.69375,-0.94688 -2.1,-0.94688 -0.7125,0 -1.24687,0.24375 -0.525,0.24375 -0.88125,0.70313 -0.34688,0.45937 -0.525,1.13437 -0.16875,0.66563 -0.16875,1.50938 0,1.6875 0.69375,2.63437 0.70312,0.9375 2.12812,0.9375 z"
         style="font-style:normal;font-variant:normal;font-weight:normal;font-stretch:normal;font-family:Lato;-inkscape-font-specification:Lato"
         id="path4657" />
      <path
         d="m 640.44094,368.58851 -3.075,9.49688 -1.32188,0 q -0.24375,0 -0.3375,-0.31875 l -2.1,-6.44063 q -0.075,-0.21562 -0.12187,-0.43125 -0.0469,-0.225 -0.0937,-0.44062 -0.0469,0.21562 -0.0937,0.44062 -0.0469,0.21563 -0.12188,0.44063 l -2.1375,6.43125 q -0.0844,0.31875 -0.375,0.31875 l -1.25625,0 -3.075,-9.49688 1.3125,0 q 0.19688,0 0.32813,0.10313 0.14062,0.10312 0.1875,0.24375 l 1.81875,6.1125 q 0.15937,0.675 0.25312,1.275 0.0844,-0.30938 0.16875,-0.62813 0.0937,-0.31875 0.19688,-0.64687 l 2.00625,-6.15 q 0.0469,-0.14063 0.15937,-0.23438 0.12188,-0.0937 0.29063,-0.0937 l 0.73125,0 q 0.1875,0 0.30937,0.0937 0.12188,0.0937 0.16875,0.23438 l 1.95938,6.15 q 0.10312,0.32812 0.1875,0.64687 0.0844,0.31875 0.15937,0.62813 0.0469,-0.30938 0.1125,-0.61875 0.075,-0.31875 0.15938,-0.65625 l 1.85625,-6.1125 q 0.0469,-0.15 0.17812,-0.24375 0.13125,-0.10313 0.30938,-0.10313 l 1.25625,0 z"
         style="font-style:normal;font-variant:normal;font-weight:normal;font-stretch:normal;font-family:Lato;-inkscape-font-specification:Lato"
         id="path4659" />
      <path
         d="m 648.17502,364.27601 0,8.12813 0.43125,0 q 0.1875,0 0.30937,-0.0469 0.13125,-0.0562 0.27188,-0.21562 l 3,-3.21563 q 0.13125,-0.15937 0.27187,-0.24375 0.15,-0.0937 0.39375,-0.0937 l 1.50938,0 -3.49688,3.72188 q -0.25312,0.31875 -0.54375,0.49687 0.16875,0.1125 0.3,0.2625 0.14063,0.14063 0.2625,0.32813 l 3.7125,4.6875 -1.49062,0 q -0.21563,0 -0.375,-0.0656 -0.15,-0.075 -0.2625,-0.2625 l -3.12188,-3.89062 q -0.14062,-0.19688 -0.28125,-0.25313 -0.13125,-0.0656 -0.4125,-0.0656 l -0.47812,0 0,4.5375 -1.67813,0 0,-13.80938 1.67813,0 z"
         style="font-style:normal;font-variant:normal;font-weight:normal;font-stretch:normal;font-family:Lato;-inkscape-font-specification:Lato"
         id="path4661" />
      <path
         d="m 661.82531,372.30101 q 0,-0.58125 -0.16875,-1.05937 -0.15937,-0.4875 -0.47812,-0.83438 -0.30938,-0.35625 -0.75938,-0.54375 -0.45,-0.19687 -1.02187,-0.19687 -1.2,0 -1.90313,0.70312 -0.69375,0.69375 -0.8625,1.93125 l 5.19375,0 z m 1.35,4.45313 q -0.30937,0.375 -0.74062,0.65625 -0.43125,0.27187 -0.92813,0.45 -0.4875,0.17812 -1.0125,0.2625 -0.525,0.0937 -1.04062,0.0937 -0.98438,0 -1.81875,-0.32813 -0.825,-0.3375 -1.43438,-0.975 -0.6,-0.64687 -0.9375,-1.59375 -0.3375,-0.94687 -0.3375,-2.175 0,-0.99375 0.3,-1.85625 0.30938,-0.8625 0.88125,-1.49062 0.57188,-0.6375 1.39688,-0.99375 0.825,-0.36563 1.85625,-0.36563 0.85312,0 1.575,0.29063 0.73125,0.28125 1.25625,0.825 0.53437,0.53437 0.83437,1.33125 0.3,0.7875 0.3,1.8 0,0.39375 -0.0844,0.525 -0.0844,0.13125 -0.31875,0.13125 l -6.34688,0 q 0.0281,0.9 0.24375,1.56562 0.225,0.66563 0.61875,1.11563 0.39375,0.44062 0.9375,0.66562 0.54375,0.21563 1.21875,0.21563 0.62813,0 1.07813,-0.14063 0.45937,-0.15 0.7875,-0.31875 0.32812,-0.16875 0.54375,-0.30937 0.225,-0.15 0.38437,-0.15 0.20625,0 0.31875,0.15937 l 0.46875,0.60938 z"
         style="font-style:normal;font-variant:normal;font-weight:normal;font-stretch:normal;font-family:Lato;-inkscape-font-specification:Lato"
         id="path4663" />
      <path
         d="m 673.29416,368.58851 -5.29688,12.3 q -0.0844,0.1875 -0.21562,0.3 -0.12188,0.1125 -0.38438,0.1125 l -1.2375,0 1.73438,-3.76875 -3.91875,-8.94375 1.44375,0 q 0.21562,0 0.3375,0.1125 0.13125,0.10313 0.17812,0.23438 l 2.54063,5.98125 q 0.15,0.39375 0.25312,0.825 0.13125,-0.44063 0.28125,-0.83438 l 2.46563,-5.97187 q 0.0562,-0.15 0.1875,-0.24375 0.14062,-0.10313 0.30937,-0.10313 l 1.32188,0 z"
         style="font-style:normal;font-variant:normal;font-weight:normal;font-stretch:normal;font-family:Lato;-inkscape-font-specification:Lato"
         id="path4665" />
      <path
         d="m 680.11652,370.15414 q -0.1125,0.20625 -0.34687,0.20625 -0.14063,0 -0.31875,-0.10313 -0.17813,-0.10312 -0.44063,-0.225 -0.25312,-0.13125 -0.60937,-0.23437 -0.35625,-0.1125 -0.84375,-0.1125 -0.42188,0 -0.75938,0.1125 -0.3375,0.10312 -0.58125,0.29062 -0.23437,0.1875 -0.36562,0.44063 -0.12188,0.24375 -0.12188,0.53437 0,0.36563 0.20625,0.60938 0.21563,0.24375 0.5625,0.42187 0.34688,0.17813 0.7875,0.31875 0.44063,0.13125 0.9,0.29063 0.46875,0.15 0.90938,0.3375 0.44062,0.1875 0.7875,0.46875 0.34687,0.28125 0.55312,0.69375 0.21563,0.40312 0.21563,0.975 0,0.65625 -0.23438,1.21875 -0.23437,0.55312 -0.69375,0.96562 -0.45937,0.40313 -1.125,0.6375 -0.66562,0.23438 -1.5375,0.23438 -0.99375,0 -1.8,-0.31875 -0.80625,-0.32813 -1.36875,-0.83438 l 0.39375,-0.6375 q 0.075,-0.12187 0.17813,-0.1875 0.10312,-0.0656 0.2625,-0.0656 0.16875,0 0.35625,0.13125 0.1875,0.13125 0.45,0.29062 0.27187,0.15938 0.65625,0.29063 0.38437,0.13125 0.95625,0.13125 0.4875,0 0.85312,-0.12188 0.36563,-0.13125 0.60938,-0.34687 0.24375,-0.21563 0.35625,-0.49688 0.12187,-0.28125 0.12187,-0.6 0,-0.39375 -0.21562,-0.64687 -0.20625,-0.2625 -0.55313,-0.44063 -0.34687,-0.1875 -0.79687,-0.31875 -0.44063,-0.14062 -0.90938,-0.29062 -0.45937,-0.15 -0.90937,-0.3375 -0.44063,-0.19688 -0.7875,-0.4875 -0.34688,-0.29063 -0.5625,-0.7125 -0.20625,-0.43125 -0.20625,-1.04063 0,-0.54375 0.225,-1.04062 0.225,-0.50625 0.65625,-0.88125 0.43125,-0.38438 1.05937,-0.60938 0.62813,-0.225 1.43438,-0.225 0.9375,0 1.67812,0.3 0.75,0.29063 1.29375,0.80625 l -0.375,0.60938 z"
         style="font-style:normal;font-variant:normal;font-weight:normal;font-stretch:normal;font-family:Lato;-inkscape-font-specification:Lato"
         id="path4667" />
      <path
         d="m 690.42814,378.23539 q -1.125,0 -1.73437,-0.62813 -0.6,-0.62812 -0.6,-1.80937 l 0,-5.8125 -1.14375,0 q -0.15,0 -0.25313,-0.0844 -0.10312,-0.0937 -0.10312,-0.28125 l 0,-0.66562 1.55625,-0.19688 0.38437,-2.93437 q 0.0281,-0.14063 0.12188,-0.225 0.10312,-0.0937 0.2625,-0.0937 l 0.84375,0 0,3.27187 2.74687,0 0,1.20938 -2.74687,0 0,5.7 q 0,0.6 0.29062,0.89062 0.29063,0.29063 0.75,0.29063 0.2625,0 0.45,-0.0656 0.19688,-0.075 0.3375,-0.15937 0.14063,-0.0844 0.23438,-0.15 0.10312,-0.075 0.17812,-0.075 0.13125,0 0.23438,0.15937 l 0.4875,0.79688 q -0.43125,0.40312 -1.04063,0.6375 -0.60937,0.225 -1.25625,0.225 z"
         style="font-style:normal;font-variant:normal;font-weight:normal;font-stretch:normal;font-family:Lato;-inkscape-font-specification:Lato"
         id="path4669" />
      <path
         d="m 698.2173,368.43851 q 1.04063,0 1.875,0.34688 0.83438,0.34687 1.425,0.98437 0.59063,0.6375 0.9,1.54688 0.31875,0.9 0.31875,2.01562 0,1.125 -0.31875,2.025 -0.30937,0.9 -0.9,1.5375 -0.59062,0.6375 -1.425,0.98438 -0.83437,0.3375 -1.875,0.3375 -1.05,0 -1.89375,-0.3375 -0.83437,-0.34688 -1.425,-0.98438 -0.59062,-0.6375 -0.90937,-1.5375 -0.30938,-0.9 -0.30938,-2.025 0,-1.11562 0.30938,-2.01562 0.31875,-0.90938 0.90937,-1.54688 0.59063,-0.6375 1.425,-0.98437 0.84375,-0.34688 1.89375,-0.34688 z m 0,8.475 q 1.40625,0 2.1,-0.9375 0.69375,-0.94687 0.69375,-2.63437 0,-1.69688 -0.69375,-2.64375 -0.69375,-0.94688 -2.1,-0.94688 -0.7125,0 -1.24687,0.24375 -0.525,0.24375 -0.88125,0.70313 -0.34688,0.45937 -0.525,1.13437 -0.16875,0.66563 -0.16875,1.50938 0,1.6875 0.69375,2.63437 0.70312,0.9375 2.12812,0.9375 z"
         style="font-style:normal;font-variant:normal;font-weight:normal;font-stretch:normal;font-family:Lato;-inkscape-font-specification:Lato"
         id="path4671" />
      <path
         d="m 711.20666,369.96664 q 0.30937,-0.34688 0.65625,-0.62813 0.34687,-0.28125 0.73125,-0.47812 0.39375,-0.20625 0.825,-0.30938 0.44062,-0.1125 0.94687,-0.1125 0.77813,0 1.36875,0.2625 0.6,0.25313 0.99375,0.73125 0.40313,0.46875 0.60938,1.13438 0.20625,0.66562 0.20625,1.47187 l 0,6.04688 -1.67813,0 0,-6.04688 q 0,-1.07812 -0.49687,-1.66875 -0.4875,-0.6 -1.49063,-0.6 -0.74062,0 -1.3875,0.35625 -0.6375,0.35625 -1.18125,0.96563 l 0,6.99375 -1.67812,0 0,-9.49688 1.00312,0 q 0.35625,0 0.44063,0.34688 l 0.13125,1.03125 z"
         style="font-style:normal;font-variant:normal;font-weight:normal;font-stretch:normal;font-family:Lato;-inkscape-font-specification:Lato"
         id="path4673" />
      <path
         d="m 725.25217,373.81039 q -1.15313,0.0375 -1.96875,0.1875 -0.80625,0.14062 -1.32188,0.375 -0.50625,0.23437 -0.74062,0.55312 -0.225,0.31875 -0.225,0.7125 0,0.375 0.12187,0.64688 0.12188,0.27187 0.32813,0.45 0.21562,0.16875 0.49687,0.25312 0.29063,0.075 0.61875,0.075 0.44063,0 0.80625,-0.0844 0.36563,-0.0937 0.68438,-0.2625 0.32812,-0.16875 0.61875,-0.40313 0.3,-0.23437 0.58125,-0.53437 l 0,-1.96875 z m -5.39063,-3.88125 q 0.7875,-0.75938 1.69688,-1.13438 0.90937,-0.375 2.01562,-0.375 0.79688,0 1.41563,0.2625 0.61875,0.2625 1.04062,0.73125 0.42188,0.46875 0.6375,1.13438 0.21563,0.66562 0.21563,1.4625 l 0,6.075 -0.74063,0 q -0.24375,0 -0.375,-0.075 -0.13125,-0.0844 -0.20625,-0.31875 l -0.1875,-0.9 q -0.375,0.34687 -0.73125,0.61875 -0.35625,0.2625 -0.75,0.45 -0.39375,0.17812 -0.84375,0.27187 -0.44062,0.10313 -0.98437,0.10313 -0.55313,0 -1.04063,-0.15 -0.4875,-0.15938 -0.85312,-0.46875 -0.35625,-0.30938 -0.57188,-0.77813 -0.20625,-0.47812 -0.20625,-1.125 0,-0.5625 0.30938,-1.07812 0.30937,-0.525 1.00312,-0.92813 0.69375,-0.40312 1.80938,-0.65625 1.11562,-0.2625 2.7375,-0.3 l 0,-0.74062 q 0,-1.10625 -0.47813,-1.66875 -0.47812,-0.57188 -1.39687,-0.57188 -0.61875,0 -1.04063,0.15938 -0.4125,0.15 -0.72187,0.34687 -0.3,0.1875 -0.525,0.34688 -0.21563,0.15 -0.43125,0.15 -0.16875,0 -0.29063,-0.0844 -0.12187,-0.0937 -0.20625,-0.225 l -0.3,-0.53437 z"
         style="font-style:normal;font-variant:normal;font-weight:normal;font-stretch:normal;font-family:Lato;-inkscape-font-specification:Lato"
         id="path4675" />
      <path
         d="m 737.36144,368.58851 -3.87187,9.49688 -1.5,0 -3.87188,-9.49688 1.35938,0 q 0.20625,0 0.3375,0.10313 0.13125,0.10312 0.17812,0.24375 l 2.40938,6.1125 q 0.1125,0.34687 0.19687,0.675 0.0844,0.32812 0.15938,0.65625 0.075,-0.32813 0.15937,-0.65625 0.0844,-0.32813 0.20625,-0.675 l 2.4375,-6.1125 q 0.0563,-0.15 0.1875,-0.24375 0.13125,-0.10313 0.30938,-0.10313 l 1.30312,0 z"
         style="font-style:normal;font-variant:normal;font-weight:normal;font-stretch:normal;font-family:Lato;-inkscape-font-specification:Lato"
         id="path4677" />
      <path
         d="m 740.65441,368.58851 0,9.49688 -1.66875,0 0,-9.49688 1.66875,0 z m 0.35625,-2.98125 q 0,0.24375 -0.10312,0.45938 -0.0937,0.20625 -0.2625,0.375 -0.15938,0.15937 -0.38438,0.25312 -0.21562,0.0937 -0.45937,0.0937 -0.24375,0 -0.45938,-0.0937 -0.20625,-0.0937 -0.36562,-0.25312 -0.15938,-0.16875 -0.25313,-0.375 -0.0937,-0.21563 -0.0937,-0.45938 0,-0.24375 0.0937,-0.45937 0.0937,-0.225 0.25313,-0.38438 0.15937,-0.16875 0.36562,-0.2625 0.21563,-0.0937 0.45938,-0.0937 0.24375,0 0.45937,0.0937 0.225,0.0937 0.38438,0.2625 0.16875,0.15938 0.2625,0.38438 0.10312,0.21562 0.10312,0.45937 z"
         style="font-style:normal;font-variant:normal;font-weight:normal;font-stretch:normal;font-family:Lato;-inkscape-font-specification:Lato"
         id="path4679" />
      <path
         d="m 746.70568,373.44476 q 0.50625,0 0.89063,-0.14062 0.38437,-0.14063 0.64687,-0.39375 0.2625,-0.25313 0.39375,-0.6 0.13125,-0.35625 0.13125,-0.77813 0,-0.87187 -0.53437,-1.3875 -0.525,-0.51562 -1.52813,-0.51562 -1.0125,0 -1.54687,0.51562 -0.525,0.51563 -0.525,1.3875 0,0.42188 0.13125,0.77813 0.14062,0.34687 0.40312,0.6 0.2625,0.25312 0.64688,0.39375 0.38437,0.14062 0.89062,0.14062 z m 3.00938,5.15625 q 0,-0.34687 -0.19688,-0.5625 -0.19687,-0.21562 -0.53437,-0.3375 -0.32813,-0.12187 -0.76875,-0.16875 -0.44063,-0.0563 -0.9375,-0.0844 -0.4875,-0.0281 -0.99375,-0.0562 -0.50625,-0.0281 -0.975,-0.0937 -0.525,0.24375 -0.8625,0.61875 -0.32813,0.36562 -0.32813,0.8625 0,0.31875 0.15938,0.59062 0.16875,0.28125 0.50625,0.47813 0.3375,0.20625 0.84375,0.31875 0.51562,0.12187 1.20937,0.12187 0.675,0 1.20938,-0.12187 0.53437,-0.12188 0.9,-0.34688 0.375,-0.225 0.57187,-0.53437 0.19688,-0.30938 0.19688,-0.68438 z m 1.69687,-9.6375 0,0.61875 q 0,0.30938 -0.39375,0.39375 l -1.07812,0.14063 q 0.31875,0.61875 0.31875,1.36875 0,0.69375 -0.27188,1.26562 -0.2625,0.5625 -0.73125,0.96563 -0.46875,0.40312 -1.125,0.61875 -0.65625,0.21562 -1.425,0.21562 -0.66562,0 -1.25625,-0.15937 -0.3,0.1875 -0.45937,0.40312 -0.15938,0.20625 -0.15938,0.42188 0,0.3375 0.27188,0.51562 0.28125,0.16875 0.73125,0.24375 0.45,0.075 1.02187,0.0937 0.58125,0.0188 1.18125,0.0656 0.60938,0.0375 1.18125,0.14062 0.58125,0.10313 1.03125,0.3375 0.45,0.23438 0.72188,0.64688 0.28125,0.4125 0.28125,1.06875 0,0.60937 -0.30938,1.18125 -0.3,0.57187 -0.87187,1.0125 -0.57188,0.45 -1.40625,0.7125 -0.825,0.27187 -1.86563,0.27187 -1.04062,0 -1.81875,-0.20625 -0.77812,-0.20625 -1.29375,-0.55312 -0.51562,-0.34688 -0.77812,-0.80625 -0.25313,-0.45 -0.25313,-0.94688 0,-0.70312 0.44063,-1.19062 0.44062,-0.4875 1.20937,-0.77813 -0.42187,-0.1875 -0.675,-0.49687 -0.24375,-0.31875 -0.24375,-0.85313 0,-0.20625 0.075,-0.42187 0.075,-0.225 0.225,-0.44063 0.15938,-0.225 0.38438,-0.42187 0.225,-0.19688 0.525,-0.34688 -0.70313,-0.39375 -1.09688,-1.04062 -0.39375,-0.65625 -0.39375,-1.51875 0,-0.69375 0.2625,-1.25625 0.27188,-0.57188 0.75,-0.96563 0.47813,-0.40312 1.13438,-0.61875 0.66562,-0.21562 1.45312,-0.21562 0.61875,0 1.15313,0.14062 0.53437,0.13125 0.975,0.39375 l 2.57812,0 z"
         style="font-style:normal;font-variant:normal;font-weight:normal;font-stretch:normal;font-family:Lato;-inkscape-font-specification:Lato"
         id="path4681" />
      <path
         d="m 758.28439,373.81039 q -1.15312,0.0375 -1.96875,0.1875 -0.80625,0.14062 -1.32187,0.375 -0.50625,0.23437 -0.74063,0.55312 -0.225,0.31875 -0.225,0.7125 0,0.375 0.12188,0.64688 0.12187,0.27187 0.32812,0.45 0.21563,0.16875 0.49688,0.25312 0.29062,0.075 0.61875,0.075 0.44062,0 0.80625,-0.0844 0.36562,-0.0937 0.68437,-0.2625 0.32813,-0.16875 0.61875,-0.40313 0.3,-0.23437 0.58125,-0.53437 l 0,-1.96875 z m -5.39062,-3.88125 q 0.7875,-0.75938 1.69687,-1.13438 0.90938,-0.375 2.01563,-0.375 0.79687,0 1.41562,0.2625 0.61875,0.2625 1.04063,0.73125 0.42187,0.46875 0.6375,1.13438 0.21562,0.66562 0.21562,1.4625 l 0,6.075 -0.74062,0 q -0.24375,0 -0.375,-0.075 -0.13125,-0.0844 -0.20625,-0.31875 l -0.1875,-0.9 q -0.375,0.34687 -0.73125,0.61875 -0.35625,0.2625 -0.75,0.45 -0.39375,0.17812 -0.84375,0.27187 -0.44063,0.10313 -0.98438,0.10313 -0.55312,0 -1.04062,-0.15 -0.4875,-0.15938 -0.85313,-0.46875 -0.35625,-0.30938 -0.57187,-0.77813 -0.20625,-0.47812 -0.20625,-1.125 0,-0.5625 0.30937,-1.07812 0.30938,-0.525 1.00313,-0.92813 0.69375,-0.40312 1.80937,-0.65625 1.11563,-0.2625 2.7375,-0.3 l 0,-0.74062 q 0,-1.10625 -0.47812,-1.66875 -0.47813,-0.57188 -1.39688,-0.57188 -0.61875,0 -1.04062,0.15938 -0.4125,0.15 -0.72188,0.34687 -0.3,0.1875 -0.525,0.34688 -0.21562,0.15 -0.43125,0.15 -0.16875,0 -0.29062,-0.0844 -0.12188,-0.0937 -0.20625,-0.225 l -0.3,-0.53437 z"
         style="font-style:normal;font-variant:normal;font-weight:normal;font-stretch:normal;font-family:Lato;-inkscape-font-specification:Lato"
         id="path4683" />
      <path
         d="m 765.24504,378.23539 q -1.125,0 -1.73438,-0.62813 -0.6,-0.62812 -0.6,-1.80937 l 0,-5.8125 -1.14375,0 q -0.15,0 -0.25312,-0.0844 -0.10313,-0.0937 -0.10313,-0.28125 l 0,-0.66562 1.55625,-0.19688 0.38438,-2.93437 q 0.0281,-0.14063 0.12187,-0.225 0.10313,-0.0937 0.2625,-0.0937 l 0.84375,0 0,3.27187 2.74688,0 0,1.20938 -2.74688,0 0,5.7 q 0,0.6 0.29063,0.89062 0.29062,0.29063 0.75,0.29063 0.2625,0 0.45,-0.0656 0.19687,-0.075 0.3375,-0.15937 0.14062,-0.0844 0.23437,-0.15 0.10313,-0.075 0.17813,-0.075 0.13125,0 0.23437,0.15937 l 0.4875,0.79688 q -0.43125,0.40312 -1.04062,0.6375 -0.60938,0.225 -1.25625,0.225 z"
         style="font-style:normal;font-variant:normal;font-weight:normal;font-stretch:normal;font-family:Lato;-inkscape-font-specification:Lato"
         id="path4685" />
      <path
         d="m 775.38732,372.30101 q 0,-0.58125 -0.16875,-1.05937 -0.15937,-0.4875 -0.47812,-0.83438 -0.30938,-0.35625 -0.75938,-0.54375 -0.45,-0.19687 -1.02187,-0.19687 -1.2,0 -1.90313,0.70312 -0.69375,0.69375 -0.8625,1.93125 l 5.19375,0 z m 1.35,4.45313 q -0.30937,0.375 -0.74062,0.65625 -0.43125,0.27187 -0.92813,0.45 -0.4875,0.17812 -1.0125,0.2625 -0.525,0.0937 -1.04062,0.0937 -0.98438,0 -1.81875,-0.32813 -0.825,-0.3375 -1.43438,-0.975 -0.6,-0.64687 -0.9375,-1.59375 -0.3375,-0.94687 -0.3375,-2.175 0,-0.99375 0.3,-1.85625 0.30938,-0.8625 0.88125,-1.49062 0.57188,-0.6375 1.39688,-0.99375 0.825,-0.36563 1.85625,-0.36563 0.85312,0 1.575,0.29063 0.73125,0.28125 1.25625,0.825 0.53437,0.53437 0.83437,1.33125 0.3,0.7875 0.3,1.8 0,0.39375 -0.0844,0.525 -0.0844,0.13125 -0.31875,0.13125 l -6.34688,0 q 0.0281,0.9 0.24375,1.56562 0.225,0.66563 0.61875,1.11563 0.39375,0.44062 0.9375,0.66562 0.54375,0.21563 1.21875,0.21563 0.62813,0 1.07813,-0.14063 0.45937,-0.15 0.7875,-0.31875 0.32812,-0.16875 0.54375,-0.30937 0.225,-0.15 0.38437,-0.15 0.20625,0 0.31875,0.15937 l 0.46875,0.60938 z"
         style="font-style:normal;font-variant:normal;font-weight:normal;font-stretch:normal;font-family:Lato;-inkscape-font-specification:Lato"
         id="path4687" />
      <path
         d="m 778.63752,377.05414 q 0,-0.24375 0.0844,-0.45938 0.0937,-0.21562 0.24375,-0.375 0.15938,-0.15937 0.375,-0.25312 0.21563,-0.0937 0.45938,-0.0937 0.24375,0 0.45937,0.0937 0.21563,0.0937 0.375,0.25312 0.15938,0.15938 0.25313,0.375 0.0937,0.21563 0.0937,0.45938 0,0.25312 -0.0937,0.46875 -0.0937,0.20625 -0.25313,0.36562 -0.15937,0.15938 -0.375,0.24375 -0.21562,0.0937 -0.45937,0.0937 -0.24375,0 -0.45938,-0.0937 -0.21562,-0.0844 -0.375,-0.24375 -0.15,-0.15937 -0.24375,-0.36562 -0.0844,-0.21563 -0.0844,-0.46875 z"
         style="font-style:normal;font-variant:normal;font-weight:normal;font-stretch:normal;font-family:Lato;-inkscape-font-specification:Lato"
         id="path4689" />
    </g>
  </g>
</svg>
